REM DIRINDEX 1\2,1\3\7,1\3\8,1\4\9,1\4\10,1\4\11,1\5\12,1\5\13,1\5\14,1\6\15,1\6\16,1\6\17
REM DIRNAME "folder01","folder02","folder03","folder04","folder05","folder06","folder07","folder08","folder09","folder10","folder11","folder12","folder13","folder14","folder15","folder16","folder17"
TITLE ""
FILE "2Q_j_1649-1662.mp3" MP3
  TRACK 01 AUDIO
    TITLE "9:cjc174_1167"
    INDEX 01 00:00:00
  TRACK 02 AUDIO
    TITLE "0:"
    INDEX 01 00:01:51
  TRACK 03 AUDIO
    TITLE "10:cjc174_1168"
    INDEX 01 00:02:25
  TRACK 04 AUDIO
    TITLE "0:"
    INDEX 01 00:04:30
  TRACK 05 AUDIO
    TITLE "11:cjc174_1169"
    INDEX 01 00:05:02
  TRACK 06 AUDIO
    TITLE "0:"
    INDEX 01 00:08:67
  TRACK 07 AUDIO
    TITLE "9:cjc174_1170"
    INDEX 01 00:09:45
  TRACK 08 AUDIO
    TITLE "0:"
    INDEX 01 00:11:04
  TRACK 09 AUDIO
    TITLE "10:cjc174_1171"
    INDEX 01 00:11:49
  TRACK 10 AUDIO
    TITLE "0:"
    INDEX 01 00:13:33
  TRACK 11 AUDIO
    TITLE "11:cjc174_1172"
    INDEX 01 00:14:07
  TRACK 12 AUDIO
    TITLE "0:"
    INDEX 01 00:16:19
  TRACK 13 AUDIO
    TITLE "9:cjc174_1173"
    INDEX 01 00:16:64
  TRACK 14 AUDIO
    TITLE "0:"
    INDEX 01 00:18:34
  TRACK 15 AUDIO
    TITLE "10:cjc174_1174"
    INDEX 01 00:19:08
  TRACK 16 AUDIO
    TITLE "0:"
    INDEX 01 00:21:48
  TRACK 17 AUDIO
    TITLE "11:cjc174_1175"
    INDEX 01 00:22:18
  TRACK 18 AUDIO
    TITLE "0:"
    INDEX 01 00:24:54
  TRACK 19 AUDIO
    TITLE "9:cjc174_1176"
    INDEX 01 00:25:24
  TRACK 20 AUDIO
    TITLE "0:"
    INDEX 01 00:26:53
  TRACK 21 AUDIO
    TITLE "10:cjc174_1177"
    INDEX 01 00:27:25
  TRACK 22 AUDIO
    TITLE "0:"
    INDEX 01 00:30:11
  TRACK 23 AUDIO
    TITLE "11:cjc174_1178"
    INDEX 01 00:30:56
  TRACK 24 AUDIO
    TITLE "0:"
    INDEX 01 00:33:53
  TRACK 25 AUDIO
    TITLE "9:cjc174_1179"
    INDEX 01 00:34:27
  TRACK 26 AUDIO
    TITLE "0:"
    INDEX 01 00:36:14
  TRACK 27 AUDIO
    TITLE "10:cjc174_1180"
    INDEX 01 00:36:69
  TRACK 28 AUDIO
    TITLE "0:"
    INDEX 01 00:39:53
  TRACK 29 AUDIO
    TITLE "11:cjc174_1181"
    INDEX 01 00:40:25
  TRACK 30 AUDIO
    TITLE "0:"
    INDEX 01 00:43:41
  TRACK 31 AUDIO
    TITLE "9:cjc174_1182"
    INDEX 01 00:44:17
  TRACK 32 AUDIO
    TITLE "0:"
    INDEX 01 00:45:60
  TRACK 33 AUDIO
    TITLE "10:cjc174_1183"
    INDEX 01 00:46:28
  TRACK 34 AUDIO
    TITLE "0:"
    INDEX 01 00:48:17
  TRACK 35 AUDIO
    TITLE "11:cjc174_1184"
    INDEX 01 00:48:64
  TRACK 36 AUDIO
    TITLE "0:"
    INDEX 01 00:53:50
  TRACK 37 AUDIO
    TITLE "9:cjc174_1185"
    INDEX 01 00:54:22
  TRACK 38 AUDIO
    TITLE "0:"
    INDEX 01 00:56:17
  TRACK 39 AUDIO
    TITLE "10:cjc174_1186"
    INDEX 01 00:56:60
  TRACK 40 AUDIO
    TITLE "0:"
    INDEX 01 00:58:68
  TRACK 41 AUDIO
    TITLE "11:cjc174_1187"
    INDEX 01 00:59:39
  TRACK 42 AUDIO
    TITLE "0:"
    INDEX 01 01:01:30
  TRACK 43 AUDIO
    TITLE "9:cjc174_1188"
    INDEX 01 01:02:00
  TRACK 44 AUDIO
    TITLE "0:"
    INDEX 01 01:03:36
  TRACK 45 AUDIO
    TITLE "10:cjc174_1189"
    INDEX 01 01:04:06
  TRACK 46 AUDIO
    TITLE "0:"
    INDEX 01 01:06:23
  TRACK 47 AUDIO
    TITLE "11:cjc174_1190"
    INDEX 01 01:06:68
  TRACK 48 AUDIO
    TITLE "0:"
    INDEX 01 01:11:12
  TRACK 49 AUDIO
    TITLE "9:cjc174_1191"
    INDEX 01 01:11:57
  TRACK 50 AUDIO
    TITLE "0:"
    INDEX 01 01:13:23
  TRACK 51 AUDIO
    TITLE "10:cjc174_1192"
    INDEX 01 01:13:68
  TRACK 52 AUDIO
    TITLE "0:"
    INDEX 01 01:16:08
  TRACK 53 AUDIO
    TITLE "11:cjc174_1193"
    INDEX 01 01:16:55
  TRACK 54 AUDIO
    TITLE "0:"
    INDEX 01 01:20:31
  TRACK 55 AUDIO
    TITLE "9:cjc174_1194"
    INDEX 01 01:21:01
  TRACK 56 AUDIO
    TITLE "0:"
    INDEX 01 01:22:61
  TRACK 57 AUDIO
    TITLE "10:cjc174_1195"
    INDEX 01 01:23:31
  TRACK 58 AUDIO
    TITLE "0:"
    INDEX 01 01:27:07
  TRACK 59 AUDIO
    TITLE "11:cjc174_1196"
    INDEX 01 01:27:52
  TRACK 60 AUDIO
    TITLE "0:"
    INDEX 01 01:32:03
  TRACK 61 AUDIO
    TITLE "9:cjc174_1197"
    INDEX 01 01:32:52
  TRACK 62 AUDIO
    TITLE "0:"
    INDEX 01 01:34:17
  TRACK 63 AUDIO
    TITLE "10:cjc174_1198"
    INDEX 01 01:34:64
  TRACK 64 AUDIO
    TITLE "0:"
    INDEX 01 01:37:41
  TRACK 65 AUDIO
    TITLE "11:cjc174_1199"
    INDEX 01 01:38:11
  TRACK 66 AUDIO
    TITLE "0:"
    INDEX 01 01:42:44
  TRACK 67 AUDIO
    TITLE "9:cjc174_1200"
    INDEX 01 01:43:18
  TRACK 68 AUDIO
    TITLE "0:"
    INDEX 01 01:44:41
  TRACK 69 AUDIO
    TITLE "10:cjc174_1201"
    INDEX 01 01:45:17
  TRACK 70 AUDIO
    TITLE "0:"
    INDEX 01 01:47:73
  TRACK 71 AUDIO
    TITLE "11:cjc174_1202"
    INDEX 01 01:48:43
  TRACK 72 AUDIO
    TITLE "0:"
    INDEX 01 01:53:15
  TRACK 73 AUDIO
    TITLE "9:cjc174_1203"
    INDEX 01 01:53:62
  TRACK 74 AUDIO
    TITLE "0:"
    INDEX 01 01:56:05
  TRACK 75 AUDIO
    TITLE "10:cjc174_1204"
    INDEX 01 01:56:50
  TRACK 76 AUDIO
    TITLE "0:"
    INDEX 01 01:59:66
  TRACK 77 AUDIO
    TITLE "11:cjc174_1205"
    INDEX 01 02:00:36
  TRACK 78 AUDIO
    TITLE "0:"
    INDEX 01 02:03:27
  TRACK 79 AUDIO
    TITLE "9:cjc174_1206"
    INDEX 01 02:03:74
  TRACK 80 AUDIO
    TITLE "0:"
    INDEX 01 02:05:39
  TRACK 81 AUDIO
    TITLE "10:cjc174_1207"
    INDEX 01 02:06:23
  TRACK 82 AUDIO
    TITLE "0:"
    INDEX 01 02:08:49
  TRACK 83 AUDIO
    TITLE "11:cjc174_1208"
    INDEX 01 02:09:22
  TRACK 84 AUDIO
    TITLE "0:"
    INDEX 01 02:12:36
